<svg width="300" height="21" viewBox="0 0 300 21" fill="none" xmlns="http://www.w3.org/2000/svg">
<path d="M3.52273 15L0.340909 3.36362H1.77273L4.20455 12.8409H4.31818L6.79545 3.36362H8.38636L10.8636 12.8409H10.9773L13.4091 3.36362H14.8409L11.6591 15H10.2045L7.63636 5.72726H7.54545L4.97727 15H3.52273ZM18.0057 3.36362V15H16.5966V3.36362H18.0057ZM20.831 15V3.36362H22.2401V13.75H27.6491V15H20.831ZM33.4219 15H29.831V3.36362H33.581C34.7098 3.36362 35.6757 3.59658 36.4787 4.06248C37.2817 4.52461 37.8973 5.18938 38.3253 6.0568C38.7533 6.92044 38.9673 7.95453 38.9673 9.15908C38.9673 10.3712 38.7514 11.4148 38.3196 12.2898C37.8878 13.161 37.259 13.8314 36.4332 14.3011C35.6075 14.767 34.6037 15 33.4219 15ZM31.2401 13.75H33.331C34.2931 13.75 35.0904 13.5644 35.723 13.1932C36.3556 12.822 36.8272 12.2935 37.1378 11.6079C37.4484 10.9223 37.6037 10.106 37.6037 9.15908C37.6037 8.21968 37.4503 7.41097 37.1435 6.73294C36.8366 6.05112 36.3783 5.52839 35.7685 5.16476C35.1586 4.79733 34.3991 4.61362 33.4901 4.61362H31.2401V13.75Z" fill="#959595"/>
<path d="M40.9332 15V3.36362H45.5241C46.4067 3.36362 47.1586 3.53218 47.7798 3.8693C48.401 4.20264 48.8745 4.66665 49.2003 5.26135C49.5298 5.85226 49.6946 6.53408 49.6946 7.3068C49.6946 8.07953 49.5279 8.76135 49.1946 9.35226C48.8613 9.94317 48.3783 10.4034 47.7457 10.7329C47.117 11.0625 46.3556 11.2273 45.4616 11.2273H42.5355V9.25567H45.0639C45.5374 9.25567 45.9276 9.17423 46.2344 9.01135C46.545 8.84468 46.776 8.61551 46.9276 8.32385C47.0829 8.02839 47.1605 7.68938 47.1605 7.3068C47.1605 6.92044 47.0829 6.58332 46.9276 6.29544C46.776 6.00377 46.545 5.77839 46.2344 5.6193C45.9238 5.45642 45.5298 5.37498 45.0526 5.37498H43.3935V15H40.9332ZM51.9545 15H49.3182L53.3352 3.36362H56.5057L60.517 15H57.8807L54.9659 6.02271H54.875L51.9545 15ZM51.7898 10.4261H58.017V12.3466H51.7898V10.4261ZM60.0483 3.36362H62.804L65.4574 8.37498H65.571L68.2244 3.36362H70.9801L66.7358 10.8863V15H64.2926V10.8863L60.0483 3.36362Z" fill="white"/>
<path fill-rule="evenodd" clip-rule="evenodd" d="M81.2028 13.8617L81.1995 13.8662L81.1963 13.8707C81.0183 14.1227 80.6196 14.1968 80.3077 13.9765C80.0581 13.8002 79.9831 13.4074 80.1957 13.097C80.5128 12.6927 80.7431 12.2201 80.8944 11.7581C81.0519 11.2771 81.1251 10.7305 81.1223 10.1944C81.1194 9.65838 81.0404 9.11262 80.8778 8.63333C80.7216 8.17295 80.4862 7.7028 80.1648 7.30194C79.9489 6.99377 80.0198 6.60017 80.2675 6.42122C80.577 6.19769 80.9765 6.26749 81.1571 6.51761L81.1604 6.5221L81.1637 6.5265C81.5638 7.05405 81.8919 7.64018 82.088 8.21523C82.2944 8.89171 82.4259 9.54608 82.4293 10.1875C82.4329 10.8624 82.3684 11.5013 82.1207 12.1302C81.851 12.8151 81.5898 13.34 81.2028 13.8617ZM84.0954 15.1145L84.1032 15.1034L84.1104 15.0919C84.9971 13.6713 85.5085 11.957 85.499 10.1711C85.4895 8.3857 84.9601 6.67737 84.0587 5.26646C83.8634 4.95669 83.9511 4.59045 84.2804 4.35261C84.5015 4.19288 84.9166 4.24944 85.1629 4.57952C86.1806 6.19416 86.7953 8.146 86.8061 10.1642C86.8172 12.2512 86.2238 14.1397 85.2224 15.7661C84.9908 16.085 84.6361 16.1743 84.3303 15.9936C83.9988 15.7507 83.9382 15.337 84.0954 15.1145ZM89.2861 2.45724L89.2948 2.47449L89.3049 2.49097C90.6839 4.73919 91.4502 7.33243 91.4652 10.1394C91.4801 12.945 90.7421 15.5451 89.3884 17.8072C89.1808 18.1409 88.8304 18.235 88.4752 18.0697C88.1519 17.859 88.065 17.5098 88.2339 17.1571C89.3852 15.1125 90.1011 12.703 90.0875 10.1467C90.074 7.60176 89.4085 5.19618 88.1569 3.15136C87.9875 2.80221 88.0714 2.45448 88.3909 2.24137C88.7763 2.05725 89.1518 2.1922 89.2861 2.45724ZM93.3691 0.317663L93.3751 0.329447L93.3817 0.340883C95.0528 3.22941 96.0346 6.53184 96.0536 10.1149C96.0727 13.6943 95.1281 17.0039 93.491 19.9079C93.2831 20.2378 92.9343 20.3302 92.5808 20.1656C92.2585 19.9556 92.1712 19.608 92.3379 19.2564C93.915 16.5648 94.7643 13.4463 94.7466 10.1219C94.7288 6.78887 93.7717 3.68251 92.2427 1.0174C92.0511 0.628355 92.1861 0.247321 92.4535 0.111831C92.846 -0.0870443 93.2325 0.0479557 93.3691 0.317663Z" fill="white"/>
</svg>
